<svg xmlns="http://www.w3.org/2000/svg" viewBox="0 0 179.33 98.74"><defs><style>.cls-1,.cls-4{fill:#0f6cab;}.cls-2{fill:#75c044;}.cls-3{fill:#fcdc3c;}.cls-4{font-size:9.79px;font-family:Poppins-Bold, Poppins;}.cls-5{font-weight:700;}.cls-6{font-size:6px;font-family:Poppins-Regular, Poppins;}</style></defs><title>FBR LOGO</title><g id="Layer_2" data-name="Layer 2"><path class="cls-1" d="M141.86,139.61v-8.09h3a4.3,4.3,0,0,1,1.77.33,2.61,2.61,0,0,1,1.14,1,2.65,2.65,0,0,1,.4,1.49,2.5,2.5,0,0,1-1.54,2.43,4.14,4.14,0,0,1-1.77.34h-2.55l.38-.41v3Zm.86-2.89-.38-.41h2.53a2.8,2.8,0,0,0,1.84-.53,1.84,1.84,0,0,0,.63-1.49,1.87,1.87,0,0,0-.63-1.5,2.8,2.8,0,0,0-1.84-.53h-2.53l.38-.4Z" transform="translate(-79.02 -64.27)"/><path class="cls-1" d="M148.26,139.61l3.7-8.09h.84l3.7,8.09h-.9L152.2,132h.35l-3.4,7.59Zm1.45-2.16.26-.69h4.7l.26.69Z" transform="translate(-79.02 -64.27)"/><path class="cls-1" d="M157.51,139.61v-8.09h.85v8.09Zm.74-2,0-1,4.9-5h1l-3.58,3.75-.48.52Zm5.07,2-3.49-4,.58-.62,3.93,4.64Z" transform="translate(-79.02 -64.27)"/><path class="cls-1" d="M165.52,139.61v-8.09h.85v8.09Z" transform="translate(-79.02 -64.27)"/><path class="cls-1" d="M171.06,139.68a5.23,5.23,0,0,1-1.73-.29,3.34,3.34,0,0,1-1.28-.76l.34-.66a3.26,3.26,0,0,0,1.15.7,4.06,4.06,0,0,0,1.52.28,3.37,3.37,0,0,0,1.24-.19,1.47,1.47,0,0,0,.7-.51,1.26,1.26,0,0,0,.23-.72,1.07,1.07,0,0,0-.27-.76,1.9,1.9,0,0,0-.71-.46,7.94,7.94,0,0,0-1-.29l-1.07-.27a5,5,0,0,1-1-.39,2.09,2.09,0,0,1-.71-.64,1.86,1.86,0,0,1-.27-1.05,2,2,0,0,1,.31-1.1,2.21,2.21,0,0,1,1-.81,3.93,3.93,0,0,1,1.69-.31,4.84,4.84,0,0,1,1.35.19,3.87,3.87,0,0,1,1.16.53l-.29.68a4,4,0,0,0-1.11-.51,4,4,0,0,0-1.12-.16,3,3,0,0,0-1.2.2,1.49,1.49,0,0,0-.7.52,1.3,1.3,0,0,0-.23.75,1.07,1.07,0,0,0,.27.76,1.85,1.85,0,0,0,.72.45,7.6,7.6,0,0,0,1,.29l1.05.28a4.68,4.68,0,0,1,1,.39,1.83,1.83,0,0,1,.72.63,1.76,1.76,0,0,1,.27,1,2,2,0,0,1-.32,1.1,2.39,2.39,0,0,1-1,.81A4.14,4.14,0,0,1,171.06,139.68Z" transform="translate(-79.02 -64.27)"/><path class="cls-1" d="M177.23,139.61v-7.35h-2.84v-.74h6.54v.74h-2.84v7.35Z" transform="translate(-79.02 -64.27)"/><path class="cls-1" d="M180.29,139.61l3.7-8.09h.85l3.7,8.09h-.91L184.24,132h.34l-3.4,7.59Zm1.46-2.16.25-.69h4.71l.25.69Z" transform="translate(-79.02 -64.27)"/><path class="cls-1" d="M189.54,139.61v-8.09h.71l5.58,7h-.37v-7h.85v8.09h-.71l-5.57-7h.37v7Z" transform="translate(-79.02 -64.27)"/><path class="cls-1" d="M145.27,113.8H118v13.35h-8.32V105.41a12,12,0,0,1,2.73-7.77A10.15,10.15,0,0,1,119.78,94h25.49V101H122a3.36,3.36,0,0,0-3,1.78,11,11,0,0,0-1,5.16h27.31Z" transform="translate(-79.02 -64.27)"/><path class="cls-1" d="M181.44,111a.49.49,0,0,1-.05-.74c1.66-1.54,7.26-7.43,2-12.91A11.27,11.27,0,0,0,175.25,94h-27.2v33.14h25.59a12.56,12.56,0,0,0,10.28-5.11C186,119,186.77,115.05,181.44,111ZM173,120.74H156v-7.29h17.08a4.86,4.86,0,0,1,3.83,1.75,2.83,2.83,0,0,1-.33,4.08A4.85,4.85,0,0,1,173,120.74Zm0-13.27H156v-7.29h17.08a4.84,4.84,0,0,1,3.83,1.76,2.83,2.83,0,0,1-.33,4.08A4.88,4.88,0,0,1,173,107.47Z" transform="translate(-79.02 -64.27)"/><path class="cls-1" d="M220,113.45s11.58-8,5.06-15.59A11.38,11.38,0,0,0,216.33,94H190.19v33.14h7.93V114h13.67l8.84,13.19h8.59Zm-5.08-4.81H197.6v-8.46h17.74a5.43,5.43,0,0,1,4.17,1.82c.93,1.1,1.39,2.68-.29,4.67A5.63,5.63,0,0,1,214.9,108.64Z" transform="translate(-79.02 -64.27)"/><path class="cls-2" d="M258.35,101.74a212.12,212.12,0,0,0-21.91-7c-3.7-1-7.41-1.92-11.14-2.71s-7.46-1.61-11.22-2.24a258.94,258.94,0,0,0-45.37-4,256,256,0,0,0-45.35,4.07A315.73,315.73,0,0,0,79,101.74a185.07,185.07,0,0,1,43.37-16.48,197.25,197.25,0,0,1,46.32-5.5A199.61,199.61,0,0,1,215,85.19a188.43,188.43,0,0,1,22.3,6.73A132.72,132.72,0,0,1,258.35,101.74Z" transform="translate(-79.02 -64.27)"/><path class="cls-3" d="M178.5,83.86c-2.09.13-4.17.21-6.26.25l.68.73a28.4,28.4,0,0,1,2.76,3.54A28.18,28.18,0,0,1,172,85.85c-.5-.39-1-.79-1.48-1.21,0,2.5-.11,5-.27,7.5a86.18,86.18,0,0,1-1,9.29,86.18,86.18,0,0,1-1-9.29c-.15-2.43-.24-4.85-.27-7.28-.41.4-.83.78-1.25,1.16a28.36,28.36,0,0,1-3.53,2.77,28.18,28.18,0,0,1,2.53-3.71l.77-1c-2.18,0-4.35-.12-6.53-.26a86.18,86.18,0,0,1-9.29-1,88.82,88.82,0,0,1,9.29-1c2.42-.15,4.84-.23,7.26-.26-.57-.57-1.13-1.16-1.68-1.78a28.29,28.29,0,0,1-2.76-3.53,28.18,28.18,0,0,1,3.71,2.53c.51.4,1,.8,1.49,1.23q.06-3.24.25-6.46a86.21,86.21,0,0,1,1-9.29,86.18,86.18,0,0,1,1,9.29q.19,3.12.25,6.22c.42-.39.83-.79,1.26-1.17a29.37,29.37,0,0,1,3.54-2.76,28.18,28.18,0,0,1-2.53,3.71c-.54.68-1.09,1.35-1.66,2,2.47,0,4.94.11,7.42.27a86.18,86.18,0,0,1,9.29,1A86.18,86.18,0,0,1,178.5,83.86Z" transform="translate(-79.02 -64.27)"/><text class="cls-4" transform="translate(25.09 88.91)"><tspan class="cls-5">Federal Board Of Revenue</tspan><tspan class="cls-6"><tspan x="2.11" y="7.2">Revenue Division- Goverment OF Pakistan</tspan></tspan></text></g></svg>